<?xml version="1.0" encoding="utf-8"?>
<!-- Generator: Adobe Illustrator 24.3.0, SVG Export Plug-In . SVG Version: 6.00 Build 0)  -->
<svg version="1.1" id="Layer_1" xmlns="http://www.w3.org/2000/svg" xmlns:xlink="http://www.w3.org/1999/xlink" x="0px" y="0px"
	 viewBox="0 0 800 300.98" style="enable-background:new 0 0 800 300.98;" xml:space="preserve">
<style type="text/css">
	.st0{fill:#00365F;}
	.st1{fill:#FFFFFF;}
	.st2{fill:#FF6B00;}
	.st3{fill:#1C1B1A;}
</style>
<g>
	<path class="st0" d="M360.33,1065.86l-0.46-0.18c0-0.04,0.04-0.04,0.04-0.04C360.02,1065.72,360.16,1065.79,360.33,1065.86z"/>
	<g>
		<path class="st0" d="M359.32,1065.4c0,0,0.03,0,0.07,0.04h-0.07V1065.4z"/>
		<path class="st0" d="M360.33,1065.86l-0.46-0.18l-0.49-0.25c0.11,0.04,0.28,0.11,0.53,0.21
			C360.02,1065.72,360.16,1065.79,360.33,1065.86z"/>
	</g>
	<path class="st0" d="M359.39,1065.44h-0.07v-0.04C359.32,1065.4,359.35,1065.4,359.39,1065.44z"/>
	<path class="st0" d="M360.33,1065.86l-0.46-0.18l-0.49-0.25c0.11,0.04,0.28,0.11,0.53,0.21
		C360.02,1065.72,360.16,1065.79,360.33,1065.86z"/>
	<path class="st1" d="M122.03,1119.13V999.25c0-11.6,9.4-21,21-21h43.13c43.74,0,71.28,26.91,71.28,70.44
		c0,43.53-27.54,70.44-71.28,70.44H122.03z M144.53,1019.65v79.08h41.63c32.59,0,47.31-13.88,47.31-50.05
		c0-36.16-14.72-50.04-47.31-50.04h-20.63C153.93,998.64,144.53,1008.05,144.53,1019.65z"/>
	<path class="st1" d="M381.92,1119.13l-31.33-104.5h23.55l17.45,59.29l4.84,26.91h1.68l7.78-29.02l21.87-57.19h29.02l22.08,57.19
		l7.78,29.02h1.68l4.84-26.91l17.45-59.29h23.13l-31.75,104.5h-28.18l-22.92-60.14l-7.99-25.65h-1.68l-7.99,25.65l-23.13,60.14
		H381.92z"/>
	<path class="st1" d="M561.71,1093.9c0-16.19,13.04-24.6,33.64-26.91l47.52-5.05v-6.1c0-17.24-7.57-23.34-27.54-23.34
		c-19.35,0-28.81,6.31-28.81,21.66v0.84h-22.5v-0.84c0-23.76,19.76-41.63,52.99-41.63c33.22,0,48.15,18.08,48.15,43.11v63.5h-20.82
		v-26.07h-1.47c-5.47,17.66-22.08,28.17-45.84,28.17C575.38,1121.23,561.71,1111.13,561.71,1093.9z M603.13,1104.83
		c23.76,0,39.74-8.83,39.74-29.44l-41,4.63c-11.77,1.47-17.45,4.2-17.45,12.4C584.42,1100.83,590.1,1104.83,603.13,1104.83z"/>
	<path class="st1" d="M706.38,1119.13v-104.5h20.82V1047h1.47c3.16-17.66,17.03-34.48,43.53-34.48c29.02,0,43.31,19.56,43.31,43.74
		v62.87H792.8v-56.77c0-19.56-8.83-29.44-30.49-29.44c-22.92,0-33.22,11.77-33.22,34.48v51.73H706.38z"/>
	<path class="st1" d="M142.85,1207.92v-43.9h-20.03v-4.72h45.14v4.72H148v43.9H142.85z"/>
	<path class="st1" d="M174.14,1189.99c0-10.89,7.76-18.65,19.45-18.65c11.76,0,19.52,7.76,19.52,18.65
		c0,10.88-7.76,18.65-19.52,18.65C181.91,1208.64,174.14,1200.88,174.14,1189.99z M208.03,1189.99c0-8.63-4.57-14-14.44-14
		c-9.87,0-14.37,5.37-14.37,14c0,8.71,4.5,14,14.37,14C203.46,1204,208.03,1198.7,208.03,1189.99z"/>
	<path class="st1" d="M222.63,1193.04v-20.97h5.15v20.17c0,7.47,3.63,11.76,11.9,11.76c8.78,0,13.35-5.3,13.35-14.51v-17.41h5.15
		v35.85h-4.64v-11.17h-0.36c-1.23,6.1-6.39,11.9-15.31,11.9C227.63,1208.64,222.63,1201.53,222.63,1193.04z"/>
	<path class="st1" d="M269.73,1207.92v-35.85h4.64v9.8h0.36c1.09-5.73,5.15-10.52,12.63-10.52c8.27,0,11.9,6.1,11.9,12.77v3.56
		h-5.15v-2.76c0-6.1-2.54-9.07-8.78-9.07c-7.26,0-10.45,4.57-10.45,12.63v19.45H269.73z"/>
	<path class="st1" d="M322.24,1199.5c0-5.88,4.86-8.42,11.54-9.14l17.05-1.89v-2.76c0-6.97-3.05-9.72-10.89-9.72
		c-7.69,0-11.76,2.76-11.76,9.07v0.29h-5.15v-0.29c0-7.55,6.24-13.71,17.27-13.71c10.89,0,15.53,6.24,15.53,14.15v22.42h-4.64v-9.65
		h-0.36c-2.1,6.6-8.42,10.38-16.76,10.38C327.03,1208.64,322.24,1205.31,322.24,1199.5z M335.23,1204.65
		c8.71,0,15.6-3.85,15.6-12.48v-0.29l-15.46,1.74c-5.37,0.51-7.98,1.81-7.98,5.51C327.39,1202.77,329.78,1204.65,335.23,1204.65z"/>
	<path class="st1" d="M367.24,1207.92v-35.85h4.64v11.25h0.36c1.23-6.1,6.31-11.97,15.24-11.97c10.09,0,15.09,7.18,15.09,15.67v20.9
		h-5.15v-20.17c0-7.4-3.56-11.68-11.75-11.68c-8.71,0-13.28,5.3-13.28,14.51v17.34H367.24z"/>
	<path class="st1" d="M411.52,1189.99c0-10.89,6.39-18.65,17.42-18.65c8.49,0,13.79,4.57,15.39,10.74h0.36v-22.79h5.15v48.62h-4.72
		v-10.6h-0.29c-1.74,7.18-7.55,11.32-15.46,11.32C417.9,1208.64,411.52,1200.88,411.52,1189.99z M430.67,1203.93
		c8.42,0,14.01-4.86,14.01-13.35v-0.65c0-8.85-5.3-13.79-14.15-13.79c-8.2,0-13.79,3.48-13.79,13.86S422.26,1203.93,430.67,1203.93z
		"/>
	<path class="st1" d="M494.11,1207.92v-43.9h-20.03v-4.72h45.14v4.72h-19.96v43.9H494.11z"/>
	<path class="st1" d="M527.29,1207.92v-35.85h4.64v9.8h0.36c1.09-5.73,5.15-10.52,12.63-10.52c8.27,0,11.9,6.1,11.9,12.77v3.56
		h-5.15v-2.76c0-6.1-2.54-9.07-8.78-9.07c-7.26,0-10.45,4.57-10.45,12.63v19.45H527.29z"/>
	<path class="st1" d="M563.8,1199.5c0-5.88,4.86-8.42,11.54-9.14l17.05-1.89v-2.76c0-6.97-3.05-9.72-10.89-9.72
		c-7.69,0-11.76,2.76-11.76,9.07v0.29h-5.15v-0.29c0-7.55,6.24-13.71,17.27-13.71c10.89,0,15.53,6.24,15.53,14.15v22.42h-4.64v-9.65
		h-0.36c-2.1,6.6-8.42,10.38-16.76,10.38C568.59,1208.64,563.8,1205.31,563.8,1199.5z M576.79,1204.65c8.71,0,15.6-3.85,15.6-12.48
		v-0.29l-15.46,1.74c-5.37,0.51-7.98,1.81-7.98,5.51C568.95,1202.77,571.34,1204.65,576.79,1204.65z"/>
	<path class="st1" d="M622.3,1207.92l-17.13-35.85h5.59l14.51,30.77h0.43l14.44-30.77h5.59l-17.13,35.85H622.3z"/>
	<path class="st1" d="M651.91,1189.99c0-10.89,7.26-18.65,18.79-18.65c10.52,0,18,6.1,18,16.76c0,1.3-0.15,2.39-0.36,3.34h-31.57
		c0.29,8.05,4.43,12.92,13.93,12.92c8.42,0,12.34-3.12,12.34-8.34v-0.51h5.15v0.51c0,7.47-7.4,12.63-17.42,12.63
		C659.24,1208.64,651.91,1201.39,651.91,1189.99z M656.77,1188.25h27.07c0-0.36,0-0.73,0-1.09c0-7.55-4.79-11.54-13.21-11.54
		C661.35,1175.63,657.14,1180.41,656.77,1188.25z"/>
	<path class="st1" d="M698.44,1207.92v-48.62h5.15v48.62H698.44z"/>
	<path class="st1" d="M713.46,1195.94v-0.14h5.15v0.43c0,6.02,3.56,8.13,12.34,8.13c8.05,0,10.81-1.89,10.81-6.02
		c0-3.77-2.25-5.01-8.2-5.95l-9.58-1.38c-6.53-0.87-10.67-3.41-10.67-9.36c0-6.31,6.02-10.3,15.89-10.3
		c10.3,0,16.98,4.35,16.98,12.77v0.15h-5.15v-0.36c0-5.37-2.83-8.27-11.97-8.27c-7.55,0-10.67,1.81-10.67,6.1
		c0,3.7,1.89,5.01,7.84,5.88l8.78,1.24c7.69,1.09,11.83,3.7,11.83,9.5c0,6.75-6.68,10.31-15.96,10.31
		C719.85,1208.64,713.46,1204.22,713.46,1195.94z"/>
	<g>
		<path class="st2" d="M315.47,1027.39l0.77,17.98l36.67,33.93c3.08,2.85,0.33,7.94-3.74,6.89l-33.53-8.43
			c-0.15,1.78-0.33,3.57-0.53,5.34c-0.83,7.5-2.04,14.95-3.62,22.33l12.08,11.18c1.13,1.03,0.11,2.87-1.36,2.51
			c0,0-7-1.76-10.66-2.69c-1.56-0.4-3.16-0.6-4.78-0.6c-0.03,0-0.06,0-0.09,0c-1.61,0-3.21,0.2-4.78,0.6
			c-3.71,0.95-10.61,2.71-10.61,2.71c-1.47,0.37-2.49-1.48-1.36-2.51l12.05-11.2c-1.97-9.16-3.37-18.38-4.19-27.68l-33.5,8.52
			c-4.08,1.03-6.84-4.04-3.76-6.9l36.61-33.97l0.74-18c0.13-3.11,1.25-6.07,3.2-8.47l2.15-2.65c1.78-2.18,5.12-2.18,6.9,0l2.14,2.64
			C314.21,1021.32,315.34,1024.29,315.47,1027.39z"/>
	</g>
	<path class="st2" d="M291.58,966.8c-25.99-19.58-58.9-30.14-93.87-27.58c-76.72,5.63-134.35,72.38-128.72,149.11
		c2.57,34.98,17.82,65.99,40.98,88.84c-31-23.31-52.17-59.4-55.23-101.14c-5.63-76.72,51.99-143.48,128.72-149.11
		C225.2,923.86,263.99,939.54,291.58,966.8z"/>
	<g>
		<path class="st2" d="M306.37,1004.22c-7.65-0.16-13.79-6.48-13.62-14.21c0.16-7.6,6.46-13.76,14.22-13.59
			c7.62,0.17,13.76,6.49,13.58,14.22C320.37,998.24,314.09,1004.36,306.37,1004.22z M310.82,990.32c0.01-0.92-0.05-1.83-0.11-2.75
			c-0.01-0.19-0.07-0.24-0.26-0.22c-0.6,0.06-1.21,0.1-1.82,0.13c-1.92,0.11-3.84,0.05-5.75-0.13c-0.18-0.02-0.27,0-0.29,0.22
			c-0.15,1.83-0.15,3.66,0,5.49c0.02,0.19,0.07,0.24,0.26,0.22c0.97-0.1,1.94-0.16,2.92-0.18c1.56-0.04,3.12,0.03,4.68,0.18
			c0.2,0.02,0.25-0.03,0.26-0.22C310.77,992.15,310.82,991.23,310.82,990.32z M300.73,987.62c0.03-0.54,0.03-0.54-0.38-0.61
			c-1.56-0.28-3.09-0.64-4.57-1.21c-0.22-0.08-0.29-0.04-0.37,0.17c-0.42,1.13-0.69,2.29-0.77,3.49c-0.13,1.82,0.14,3.57,0.8,5.27
			c0.07,0.17,0.15,0.18,0.3,0.12c0.34-0.13,0.69-0.25,1.04-0.36c1.21-0.39,2.45-0.67,3.71-0.88c0.13-0.02,0.31,0.03,0.29-0.24
			C300.58,991.4,300.57,989.45,300.73,987.62z M318.7,990.31c-0.01-1.37-0.23-2.7-0.69-4c-0.21-0.6-0.21-0.6-0.8-0.39
			c-1.42,0.5-2.88,0.86-4.36,1.1c-0.23,0.04-0.34,0.08-0.31,0.37c0.18,1.94,0.18,3.89,0,5.84c-0.03,0.29,0.06,0.35,0.32,0.39
			c1.59,0.26,3.15,0.64,4.66,1.22c0.21,0.08,0.29,0.05,0.37-0.17C318.42,993.26,318.69,991.81,318.7,990.31z M306.65,985.68
			c1.19,0,2.37-0.07,3.56-0.17c0.22-0.02,0.23-0.11,0.2-0.27c-0.27-1.49-0.64-2.96-1.27-4.35c-0.37-0.8-0.78-1.57-1.46-2.17
			c-0.7-0.61-1.34-0.62-2.04-0.01c-0.48,0.41-0.82,0.92-1.12,1.46c-0.86,1.6-1.31,3.33-1.63,5.1c-0.03,0.16,0.01,0.22,0.18,0.23
			C304.26,985.62,305.45,985.68,306.65,985.68z M306.65,994.95c-1.19,0-2.37,0.06-3.55,0.17c-0.21,0.02-0.24,0.09-0.21,0.27
			c0.27,1.5,0.64,2.98,1.28,4.37c0.36,0.79,0.78,1.55,1.45,2.14c0.71,0.62,1.35,0.62,2.07,0c0.5-0.43,0.85-0.97,1.15-1.54
			c0.83-1.57,1.26-3.26,1.58-5c0.03-0.18-0.03-0.23-0.2-0.24C309.02,995.01,307.84,994.95,306.65,994.95z M310.11,978.78
			c0.43,0.68,0.74,1.35,1,2.03c0.52,1.33,0.86,2.7,1.11,4.1c0.03,0.15-0.02,0.36,0.28,0.31c1.42-0.26,2.83-0.59,4.2-1.08
			c0.2-0.07,0.23-0.13,0.11-0.31c-0.99-1.52-2.24-2.77-3.78-3.73C312.13,979.53,311.18,979.09,310.11,978.78z M310.14,1001.82
			c0.05,0,0.07,0,0.09,0c2.8-0.9,4.99-2.59,6.59-5.05c0.09-0.14,0.08-0.2-0.08-0.26c-1.38-0.5-2.81-0.83-4.25-1.09
			c-0.25-0.05-0.24,0.12-0.26,0.26C311.85,997.83,311.27,999.91,310.14,1001.82z M303.17,978.79c-0.09,0.02-0.15,0.03-0.2,0.05
			c-2.75,0.91-4.91,2.58-6.49,5.01c-0.11,0.16-0.08,0.21,0.1,0.27c1.34,0.48,2.71,0.81,4.11,1.07c0.29,0.05,0.36-0.02,0.4-0.29
			C301.45,982.78,302.03,980.71,303.17,978.79z M303.18,1001.85c-0.41-0.67-0.73-1.32-0.99-2c-0.52-1.33-0.87-2.71-1.11-4.12
			c-0.03-0.18-0.03-0.35-0.32-0.3c-1.41,0.27-2.81,0.59-4.17,1.07c-0.22,0.08-0.21,0.14-0.1,0.31c1.07,1.66,2.47,2.98,4.18,3.97
			C301.45,1001.22,302.27,1001.58,303.18,1001.85z"/>
	</g>
	<rect x="766.14" y="1189.3" class="st1" width="49.37" height="5.15"/>
</g>
<g>
	<path class="st0" d="M325.4,148.75l-0.46-0.18c0-0.04,0.04-0.04,0.04-0.04C325.09,148.61,325.23,148.68,325.4,148.75z"/>
	<g>
		<path class="st0" d="M324.39,148.29c0,0,0.03,0,0.07,0.04h-0.07V148.29z"/>
		<path class="st0" d="M325.4,148.75l-0.46-0.18l-0.49-0.25c0.11,0.04,0.28,0.11,0.53,0.21
			C325.09,148.61,325.23,148.68,325.4,148.75z"/>
	</g>
	<path class="st0" d="M324.46,148.33h-0.07v-0.04C324.39,148.29,324.42,148.29,324.46,148.33z"/>
	<path class="st0" d="M325.4,148.75l-0.46-0.18l-0.49-0.25c0.11,0.04,0.28,0.11,0.53,0.21C325.09,148.61,325.23,148.68,325.4,148.75
		z"/>
	<path class="st3" d="M87.1,202.02V82.15c0-11.6,9.4-21,21-21h43.13c43.74,0,71.28,26.91,71.28,70.44
		c0,43.53-27.54,70.44-71.28,70.44H87.1z M109.6,102.54v79.09h41.63c32.59,0,47.31-13.88,47.31-50.05
		c0-36.17-14.72-50.04-47.31-50.04H130.6C119,81.54,109.6,90.94,109.6,102.54z"/>
	<path class="st3" d="M346.99,202.02l-31.33-104.5h23.55l17.45,59.29l4.84,26.91h1.68l7.78-29.02l21.87-57.19h29.02l22.08,57.19
		l7.78,29.02h1.68l4.84-26.91l17.45-59.29h23.13l-31.75,104.5h-28.18l-22.92-60.14l-7.99-25.65h-1.68l-7.99,25.65l-23.13,60.14
		H346.99z"/>
	<path class="st3" d="M526.78,176.79c0-16.19,13.04-24.6,33.64-26.91l47.52-5.05v-6.1c0-17.24-7.57-23.34-27.54-23.34
		c-19.35,0-28.81,6.31-28.81,21.66v0.84h-22.5v-0.84c0-23.76,19.76-41.63,52.99-41.63c33.22,0,48.15,18.08,48.15,43.11v63.5h-20.82
		v-26.07h-1.47c-5.47,17.66-22.08,28.17-45.84,28.17C540.45,204.12,526.78,194.03,526.78,176.79z M568.2,187.72
		c23.76,0,39.74-8.83,39.74-29.44l-41,4.63c-11.77,1.47-17.45,4.2-17.45,12.4C549.49,183.73,555.17,187.72,568.2,187.72z"/>
	<path class="st3" d="M671.45,202.02V97.52h20.82v32.38h1.47c3.16-17.66,17.03-34.48,43.53-34.48c29.02,0,43.31,19.56,43.31,43.74
		v62.87h-22.71v-56.77c0-19.56-8.83-29.44-30.49-29.44c-22.92,0-33.22,11.77-33.22,34.48v51.73H671.45z"/>
	<path class="st3" d="M107.92,290.81v-43.9H87.89v-4.72h45.14v4.72h-19.96v43.9H107.92z"/>
	<path class="st3" d="M139.21,272.89c0-10.89,7.76-18.65,19.45-18.65c11.76,0,19.52,7.76,19.52,18.65
		c0,10.88-7.76,18.65-19.52,18.65C146.98,291.54,139.21,283.77,139.21,272.89z M173.1,272.89c0-8.63-4.57-14-14.44-14
		c-9.87,0-14.37,5.37-14.37,14c0,8.71,4.5,14,14.37,14C168.53,286.89,173.1,281.59,173.1,272.89z"/>
	<path class="st3" d="M187.7,275.93v-20.97h5.15v20.17c0,7.47,3.63,11.76,11.9,11.76c8.78,0,13.35-5.3,13.35-14.51v-17.41h5.15
		v35.85h-4.64v-11.17h-0.36c-1.23,6.1-6.39,11.9-15.31,11.9C192.7,291.54,187.7,284.42,187.7,275.93z"/>
	<path class="st3" d="M234.8,290.81v-35.85h4.64v9.8h0.36c1.09-5.73,5.15-10.52,12.63-10.52c8.27,0,11.9,6.1,11.9,12.77v3.56h-5.15
		v-2.76c0-6.1-2.54-9.07-8.78-9.07c-7.26,0-10.45,4.57-10.45,12.63v19.45H234.8z"/>
	<path class="st3" d="M287.31,282.39c0-5.88,4.86-8.42,11.54-9.14l17.05-1.89v-2.76c0-6.97-3.05-9.72-10.89-9.72
		c-7.69,0-11.76,2.76-11.76,9.07v0.29h-5.15v-0.29c0-7.55,6.24-13.71,17.27-13.71c10.89,0,15.53,6.24,15.53,14.15v22.42h-4.64v-9.65
		h-0.36c-2.1,6.6-8.42,10.38-16.76,10.38C292.1,291.54,287.31,288.2,287.31,282.39z M300.3,287.55c8.71,0,15.6-3.85,15.6-12.48
		v-0.29l-15.46,1.74c-5.37,0.51-7.98,1.81-7.98,5.51C292.46,285.66,294.85,287.55,300.3,287.55z"/>
	<path class="st3" d="M332.31,290.81v-35.85h4.64v11.25h0.36c1.23-6.1,6.31-11.97,15.24-11.97c10.09,0,15.09,7.18,15.09,15.67v20.9
		h-5.15v-20.17c0-7.4-3.56-11.68-11.75-11.68c-8.71,0-13.28,5.3-13.28,14.51v17.34H332.31z"/>
	<path class="st3" d="M376.59,272.89c0-10.89,6.39-18.65,17.42-18.65c8.49,0,13.79,4.57,15.39,10.74h0.36v-22.79h5.15v48.62h-4.72
		v-10.6h-0.29c-1.74,7.18-7.55,11.32-15.46,11.32C382.97,291.54,376.59,283.77,376.59,272.89z M395.74,286.82
		c8.42,0,14.01-4.86,14.01-13.35v-0.65c0-8.85-5.3-13.79-14.15-13.79c-8.2,0-13.79,3.48-13.79,13.86S387.33,286.82,395.74,286.82z"
		/>
	<path class="st3" d="M459.18,290.81v-43.9h-20.03v-4.72h45.14v4.72h-19.96v43.9H459.18z"/>
	<path class="st3" d="M492.35,290.81v-35.85H497v9.8h0.36c1.09-5.73,5.15-10.52,12.63-10.52c8.27,0,11.9,6.1,11.9,12.77v3.56h-5.15
		v-2.76c0-6.1-2.54-9.07-8.78-9.07c-7.26,0-10.45,4.57-10.45,12.63v19.45H492.35z"/>
	<path class="st3" d="M528.87,282.39c0-5.88,4.86-8.42,11.54-9.14l17.05-1.89v-2.76c0-6.97-3.05-9.72-10.89-9.72
		c-7.69,0-11.76,2.76-11.76,9.07v0.29h-5.15v-0.29c0-7.55,6.24-13.71,17.27-13.71c10.89,0,15.53,6.24,15.53,14.15v22.42h-4.64v-9.65
		h-0.36c-2.1,6.6-8.42,10.38-16.76,10.38C533.66,291.54,528.87,288.2,528.87,282.39z M541.86,287.55c8.71,0,15.6-3.85,15.6-12.48
		v-0.29L542,276.52c-5.37,0.51-7.98,1.81-7.98,5.51C534.02,285.66,536.41,287.55,541.86,287.55z"/>
	<path class="st3" d="M587.37,290.81l-17.13-35.85h5.59l14.51,30.77h0.43l14.44-30.77h5.59l-17.13,35.85H587.37z"/>
	<path class="st3" d="M616.98,272.89c0-10.89,7.26-18.65,18.79-18.65c10.52,0,18,6.1,18,16.76c0,1.3-0.15,2.39-0.36,3.34h-31.57
		c0.29,8.05,4.43,12.92,13.93,12.92c8.42,0,12.34-3.12,12.34-8.34v-0.51h5.15v0.51c0,7.47-7.4,12.63-17.42,12.63
		C624.31,291.54,616.98,284.28,616.98,272.89z M621.84,271.15h27.07c0-0.36,0-0.73,0-1.09c0-7.55-4.79-11.54-13.21-11.54
		C626.42,258.52,622.21,263.31,621.84,271.15z"/>
	<path class="st3" d="M663.51,290.81v-48.62h5.15v48.62H663.51z"/>
	<path class="st3" d="M678.53,278.84v-0.14h5.15v0.43c0,6.02,3.56,8.13,12.34,8.13c8.05,0,10.81-1.89,10.81-6.02
		c0-3.77-2.25-5.01-8.2-5.95l-9.58-1.38c-6.53-0.87-10.67-3.41-10.67-9.36c0-6.31,6.02-10.3,15.89-10.3
		c10.3,0,16.98,4.35,16.98,12.77v0.15h-5.15v-0.36c0-5.37-2.83-8.27-11.97-8.27c-7.55,0-10.67,1.81-10.67,6.1
		c0,3.7,1.89,5.01,7.84,5.88l8.78,1.24c7.69,1.09,11.83,3.7,11.83,9.5c0,6.75-6.68,10.3-15.96,10.3
		C684.92,291.54,678.53,287.11,678.53,278.84z"/>
	<g>
		<path class="st2" d="M280.54,110.29l0.77,17.98l36.67,33.93c3.08,2.85,0.33,7.94-3.74,6.89l-33.53-8.43
			c-0.15,1.78-0.33,3.57-0.53,5.34c-0.83,7.5-2.04,14.95-3.62,22.33l12.08,11.18c1.13,1.03,0.11,2.87-1.36,2.51
			c0,0-7-1.76-10.66-2.69c-1.56-0.4-3.16-0.6-4.78-0.6c-0.03,0-0.06,0-0.09,0c-1.61,0-3.21,0.2-4.78,0.6
			c-3.71,0.95-10.61,2.71-10.61,2.71c-1.47,0.37-2.49-1.48-1.36-2.51l12.05-11.2c-1.97-9.16-3.37-18.38-4.19-27.68l-33.5,8.52
			c-4.08,1.03-6.84-4.04-3.76-6.9l36.61-33.97l0.74-18c0.13-3.11,1.25-6.07,3.2-8.47l2.15-2.65c1.78-2.18,5.12-2.18,6.9,0l2.14,2.64
			C279.28,104.22,280.41,107.19,280.54,110.29z"/>
	</g>
	<path class="st2" d="M256.65,49.7c-25.99-19.58-58.9-30.14-93.87-27.58C86.05,27.75,28.42,94.51,34.05,171.23
		c2.57,34.98,17.82,65.99,40.98,88.84c-31-23.32-52.17-59.4-55.23-101.14C14.17,82.21,71.8,15.45,148.52,9.82
		C190.27,6.76,229.06,22.43,256.65,49.7z"/>
	<g>
		<path class="st2" d="M271.44,87.11c-7.65-0.16-13.79-6.48-13.62-14.21c0.16-7.6,6.46-13.76,14.22-13.59
			c7.62,0.17,13.76,6.49,13.58,14.22C285.44,81.13,279.16,87.25,271.44,87.11z M275.89,73.21c0.01-0.92-0.05-1.83-0.11-2.75
			c-0.01-0.19-0.07-0.24-0.26-0.22c-0.6,0.06-1.21,0.1-1.82,0.13c-1.92,0.11-3.84,0.05-5.75-0.13c-0.18-0.02-0.27,0-0.29,0.22
			c-0.15,1.83-0.15,3.66,0,5.49c0.02,0.19,0.07,0.24,0.26,0.22c0.97-0.1,1.94-0.16,2.92-0.18c1.56-0.04,3.12,0.03,4.68,0.18
			c0.2,0.02,0.25-0.03,0.26-0.22C275.84,75.04,275.89,74.13,275.89,73.21z M265.8,70.51c0.03-0.54,0.03-0.54-0.38-0.61
			c-1.56-0.28-3.09-0.64-4.57-1.21c-0.22-0.08-0.29-0.04-0.37,0.17c-0.42,1.13-0.69,2.29-0.77,3.49c-0.13,1.82,0.14,3.57,0.8,5.27
			c0.07,0.17,0.15,0.18,0.3,0.12c0.34-0.13,0.69-0.25,1.04-0.36c1.21-0.39,2.45-0.67,3.71-0.88c0.13-0.02,0.31,0.03,0.29-0.24
			C265.65,74.3,265.64,72.34,265.8,70.51z M283.77,73.2c-0.01-1.37-0.23-2.7-0.69-4c-0.21-0.6-0.21-0.6-0.8-0.39
			c-1.42,0.5-2.88,0.86-4.36,1.1c-0.23,0.04-0.34,0.08-0.31,0.37c0.18,1.94,0.18,3.89,0,5.84c-0.03,0.29,0.06,0.35,0.32,0.39
			c1.59,0.26,3.15,0.64,4.66,1.22c0.21,0.08,0.29,0.05,0.37-0.17C283.49,76.15,283.76,74.7,283.77,73.2z M271.72,68.58
			c1.19,0,2.37-0.07,3.56-0.17c0.22-0.02,0.23-0.11,0.2-0.27c-0.27-1.49-0.64-2.96-1.27-4.35c-0.37-0.8-0.78-1.57-1.46-2.17
			c-0.7-0.61-1.34-0.62-2.04-0.01c-0.48,0.41-0.82,0.92-1.12,1.46c-0.86,1.6-1.31,3.33-1.63,5.1c-0.03,0.16,0.01,0.22,0.18,0.23
			C269.33,68.51,270.52,68.58,271.72,68.58z M271.72,77.84c-1.19,0-2.37,0.06-3.55,0.17c-0.21,0.02-0.24,0.09-0.21,0.27
			c0.27,1.5,0.64,2.98,1.28,4.37c0.36,0.79,0.78,1.55,1.45,2.14c0.71,0.62,1.35,0.62,2.07,0c0.5-0.43,0.85-0.97,1.15-1.54
			c0.83-1.57,1.26-3.26,1.58-5c0.03-0.18-0.03-0.23-0.2-0.24C274.09,77.91,272.91,77.84,271.72,77.84z M275.18,61.67
			c0.43,0.68,0.74,1.35,1,2.03c0.52,1.33,0.86,2.7,1.11,4.1c0.03,0.15-0.02,0.36,0.28,0.31c1.42-0.26,2.83-0.59,4.2-1.08
			c0.2-0.07,0.23-0.13,0.11-0.31c-0.99-1.52-2.24-2.77-3.78-3.73C277.2,62.43,276.25,61.99,275.18,61.67z M275.21,84.71
			c0.05,0,0.07,0,0.09,0c2.8-0.9,4.99-2.59,6.59-5.05c0.09-0.14,0.08-0.2-0.08-0.26c-1.38-0.5-2.81-0.83-4.25-1.09
			c-0.25-0.05-0.24,0.12-0.26,0.26C276.92,80.72,276.34,82.8,275.21,84.71z M268.24,61.69c-0.09,0.02-0.15,0.03-0.2,0.05
			c-2.75,0.91-4.91,2.58-6.49,5.01c-0.11,0.16-0.08,0.21,0.1,0.27c1.34,0.48,2.71,0.81,4.11,1.07c0.29,0.05,0.36-0.02,0.4-0.29
			C266.52,65.67,267.1,63.61,268.24,61.69z M268.25,84.74c-0.41-0.67-0.73-1.32-0.99-2c-0.52-1.33-0.87-2.71-1.11-4.12
			c-0.03-0.18-0.03-0.35-0.32-0.3c-1.41,0.27-2.81,0.59-4.17,1.07c-0.22,0.08-0.21,0.14-0.1,0.31c1.07,1.66,2.47,2.98,4.18,3.97
			C266.52,84.12,267.34,84.48,268.25,84.74z"/>
	</g>
	<rect x="731.21" y="272.2" class="st3" width="49.37" height="5.15"/>
</g>
</svg>
